HIERARCHY
ROOT Pelvis
{
	OFFSET 0.000000 0.000000 0.000000
	CHANNELS 6 Xposition Yposition Zposition Xrotation Yrotation Zrotation
	JOINT LeftUpLeg_virtual
	{
		OFFSET 0.000000 0.000000 0.000000
		CHANNELS 3 Xrotation Yrotation Zrotation
		JOINT LeftUpLeg
		{
			OFFSET 18.735201 -5.666702 -4.541200
			CHANNELS 3 Xrotation Yrotation Zrotation
			JOINT LeftLeg
			{
				OFFSET -0.021200 -31.938179 0.493100
				CHANNELS 3 Xrotation Yrotation Zrotation
				JOINT LeftFoot
				{
					OFFSET 0.021200 -31.938179 -4.336299
					CHANNELS 3 Xrotation Yrotation Zrotation
					JOINT LeftToeBase
					{
						OFFSET 0.943001 -26.722000 15.023500
						CHANNELS 3 Xrotation Yrotation Zrotation
						End Site
						{
							OFFSET 0 0 0
						}
					}
				}
			}
		}
	}
	JOINT RightUpLeg_virtual
	{
		OFFSET 0.000000 0.000000 0.000000
		CHANNELS 3 Xrotation Yrotation Zrotation
		JOINT RightUpLeg
		{
			OFFSET -18.735201 -5.666702 -4.541200
			CHANNELS 3 Xrotation Yrotation Zrotation
			JOINT RightLeg
			{
				OFFSET 0.018946 -31.938133 0.493100
				CHANNELS 3 Xrotation Yrotation Zrotation
				JOINT RightFoot
				{
					OFFSET -0.018946 -31.938126 -4.336299
					CHANNELS 3 Xrotation Yrotation Zrotation
					JOINT RightToeBase
					{
						OFFSET -0.943001 -26.722004 15.023500
						CHANNELS 3 Xrotation Yrotation Zrotation
						End Site
						{
							OFFSET 0 0 0
						}
					}
				}
			}
		}
	}
	JOINT Hips_virtual
	{
		OFFSET 0.000000 0.000000 0.000000
		CHANNELS 3 Xrotation Yrotation Zrotation
		JOINT Hips
		{
			OFFSET -0.000000 -0.000000 -0.000000
			CHANNELS 3 Xrotation Yrotation Zrotation
			JOINT Spine
			{
				OFFSET 0.000000 10.199997 -0.299500
				CHANNELS 3 Xrotation Yrotation Zrotation
				JOINT Spine1
				{
					OFFSET 0.000000 11.900002 -1.516600
					CHANNELS 3 Xrotation Yrotation Zrotation
					JOINT Spine2
					{
						OFFSET 0.000000 13.600006 -2.842500
						CHANNELS 3 Xrotation Yrotation Zrotation
						JOINT Neck_virtual
						{
							OFFSET 0.000000 0.000000 0.000000
							CHANNELS 3 Xrotation Yrotation Zrotation
							JOINT Neck
							{
								OFFSET 0.000000 9.624100 -2.890100
								CHANNELS 3 Xrotation Yrotation Zrotation
								JOINT Head
								{
									OFFSET 0.000000 14.068802 -1.351900
									CHANNELS 3 Xrotation Yrotation Zrotation
									End Site
									{
										OFFSET 0 0 0
									}
								}
							}
						}
						JOINT LeftShoulder_virtual
						{
							OFFSET 0.000000 0.000000 0.000000
							CHANNELS 3 Xrotation Yrotation Zrotation
							JOINT LeftShoulder
							{
								OFFSET 15.263000 10.923401 -0.547700
								CHANNELS 3 Xrotation Yrotation Zrotation
								JOINT LeftArm
								{
									OFFSET 25.438599 -2.830597 -13.032500
									CHANNELS 3 Xrotation Yrotation Zrotation
									JOINT LeftForeArm
									{
										OFFSET 29.960503 0.000000 0.000000
										CHANNELS 3 Xrotation Yrotation Zrotation
										JOINT LeftHand
										{
											OFFSET 27.849251 0.000000 0.000000
											CHANNELS 3 Xrotation Yrotation Zrotation
											End Site
											{
												OFFSET 0 0 0
											}
										}
									}
								}
							}
						}
						JOINT RightShoulder_virtual
						{
							OFFSET 0.000000 0.000000 0.000000
							CHANNELS 3 Xrotation Yrotation Zrotation
							JOINT RightShoulder
							{
								OFFSET -15.263000 10.923401 -0.547700
								CHANNELS 3 Xrotation Yrotation Zrotation
								JOINT RightArm
								{
									OFFSET -25.438599 -2.830597 -13.032500
									CHANNELS 3 Xrotation Yrotation Zrotation
									JOINT RightForeArm
									{
										OFFSET -29.960503 0.000000 0.000000
										CHANNELS 3 Xrotation Yrotation Zrotation
										JOINT RightHand
										{
											OFFSET -27.849251 0.000000 0.000000
											CHANNELS 3 Xrotation Yrotation Zrotation
											End Site
											{
												OFFSET 0 0 0
											}
										}
									}
								}
							}
						}
					}
				}
			}
		}
	}
}
MOTION
Frames: 13
Frame Time: 0.03333333
0.425527 92.707489 -50.317513 0.000000 0.000000 0.000000 152.281895 -84.860729 147.497635 -41.878933 -13.834527 11.076581 33.342907 -1.244959 -2.697507 -13.652418 0.425000 -10.892788 0.000000 0.000000 0.000000 60.340213 -67.841353 65.200719 -21.987052 -33.411014 -2.357773 30.651632 4.488572 -7.961024 -18.380649 4.872239 0.215536 0.000000 0.000000 0.000000 -8.097605 -60.283147 -1.643640 15.500341 -53.013476 7.744181 -0.687016 2.825738 -1.268431 -2.423136 2.046450 -0.805630 0.000000 0.000000 0.000000 -0.155447 4.358907 -0.434323 -2.037850 3.668041 0.269949 0.000000 0.000000 0.000000 -1.731685 1.878107 -2.200818 1.111459 0.452716 -4.416169 7.268435 5.695251 -69.480236 4.059864 -19.487595 -14.015436 0.000000 0.000000 0.000000 -2.600695 0.376284 -0.684386 0.860961 -0.008015 9.009277 16.830641 12.017301 44.103348 8.733260 62.781692 1.969833 0.000000 0.000000 0.000000 
0.296376 92.739647 -51.268410 0.000000 0.000000 0.000000 168.085601 -80.196468 163.002164 -42.074163 -15.621884 10.089573 33.905619 -1.265602 -2.934299 -13.328549 0.503030 -11.237774 0.000000 0.000000 0.000000 61.848340 -67.594448 67.191836 -22.189036 -33.651639 -1.751503 31.433255 5.158439 -8.130310 -17.903007 5.643691 0.469310 0.000000 0.000000 0.000000 -7.848796 -60.842041 -1.472818 18.041204 -54.695465 10.496256 -0.445127 3.245940 -1.370727 -2.351330 2.257320 -0.838059 0.000000 0.000000 0.000000 0.047838 4.428494 -0.387607 -1.967380 3.593255 0.313993 0.000000 0.000000 0.000000 -1.691265 2.075347 -2.210076 1.193584 0.468717 -4.323114 8.040282 5.594385 -70.153515 4.256337 -19.396383 -14.185464 0.000000 0.000000 0.000000 -2.522922 0.544213 -0.724101 0.859287 0.314740 9.154639 16.280678 12.583356 43.394535 8.956329 62.436781 1.489125 0.000000 0.000000 0.000000 
0.149741 92.790520 -52.242004 0.000000 0.000000 0.000000 172.567817 -76.121912 167.182950 -42.072008 -17.223254 9.278788 34.421626 -1.270322 -3.064481 -13.021599 0.544288 -11.401103 0.000000 0.000000 0.000000 63.239390 -67.362898 69.090130 -22.460841 -33.880177 -1.177211 32.156479 5.829007 -8.278938 -17.492473 6.393621 0.769502 0.000000 0.000000 0.000000 -7.607798 -61.382008 -1.301852 20.630976 -56.090893 13.083146 -0.133739 3.622190 -1.466851 -2.247426 2.442691 -0.858183 0.000000 0.000000 0.000000 0.309487 4.457503 -0.333782 -1.866324 3.500610 0.352421 0.000000 0.000000 0.000000 -1.627056 2.250565 -2.202910 1.286410 0.470691 -4.242941 8.847115 5.485168 -70.780834 4.481587 -19.251231 -14.347832 0.000000 0.000000 0.000000 -2.413163 0.693409 -0.755483 0.877954 0.633859 9.287742 15.553586 13.126121 42.670490 9.104979 62.106548 0.991793 0.000000 0.000000 0.000000 
0.045876 92.838562 -53.234871 0.000000 0.000000 0.000000 175.087118 -72.653938 169.408021 -42.152045 -18.645703 8.368305 34.924352 -1.338287 -3.194243 -12.710011 0.520504 -11.601700 0.000000 0.000000 0.000000 64.637468 -67.155834 70.944642 -22.823130 -34.087866 -0.746636 32.775458 6.558944 -8.393707 -17.227979 7.155692 1.185578 0.000000 0.000000 0.000000 -7.320136 -61.900673 -1.091975 22.488019 -57.251913 14.922818 0.200407 3.948035 -1.560402 -2.137830 2.601453 -0.869448 0.000000 0.000000 0.000000 0.532337 4.407197 -0.303647 -1.778597 3.365586 0.368292 0.000000 0.000000 0.000000 -1.562984 2.410568 -2.195097 1.374678 0.504355 -4.238491 9.742413 5.404455 -71.388618 4.762815 -18.963638 -14.510464 0.000000 0.000000 0.000000 -2.297336 0.814408 -0.783610 0.902398 0.926441 9.390320 14.801850 13.681740 41.964563 9.267962 61.818977 0.450517 0.000000 0.000000 0.000000 
-0.043079 92.854691 -54.166153 0.000000 0.000000 0.000000 177.297326 -69.427288 171.391863 -42.551034 -20.052899 7.141602 35.500335 -1.626486 -3.326708 -12.370629 0.274853 -11.943883 0.000000 0.000000 0.000000 65.666648 -66.881294 72.460036 -23.258836 -34.235913 -0.347160 33.413753 7.288529 -8.507305 -16.985084 7.902514 1.624493 0.000000 0.000000 0.000000 -6.869096 -62.410621 -0.742872 24.689218 -58.743213 17.398213 0.504667 4.171657 -1.629141 -2.051841 2.708127 -0.860242 0.000000 0.000000 0.000000 0.736805 4.229786 -0.321613 -1.696218 3.159047 0.348474 0.000000 0.000000 0.000000 -1.505902 2.540957 -2.176517 1.449026 0.504748 -4.273483 10.698655 5.332385 -71.958249 5.087018 -18.567605 -14.667109 0.000000 0.000000 0.000000 -2.179714 0.891002 -0.797402 0.934634 1.116206 9.496141 14.066776 14.229322 41.276319 9.449795 61.542088 -0.127873 0.000000 0.000000 0.000000 
-0.075584 92.850471 -55.043839 0.000000 0.000000 0.000000 179.094349 -66.807644 173.117415 -43.397021 -21.193905 5.893299 35.911724 -1.981444 -3.459027 -12.166265 -0.026391 -12.326253 0.000000 0.000000 0.000000 66.554128 -66.537531 73.807700 -23.622687 -34.356483 0.064464 34.047076 8.021806 -8.616179 -16.757326 8.642570 2.082474 0.000000 0.000000 0.000000 -6.415239 -62.927168 -0.381844 27.161974 -60.143709 20.130791 0.850270 4.315053 -1.704298 -1.949213 2.775458 -0.849220 0.000000 0.000000 0.000000 0.954627 4.020701 -0.311484 -1.601747 2.941748 0.337645 0.000000 0.000000 0.000000 -1.441461 2.645083 -2.153177 1.524665 0.493995 -4.372869 11.526702 5.299408 -72.502588 5.362936 -18.151144 -14.835166 0.000000 0.000000 0.000000 -2.033298 0.932488 -0.791753 1.004491 1.247918 9.621916 13.434745 14.745615 40.639151 9.672099 61.234094 -0.726417 0.000000 0.000000 0.000000 
-0.062717 92.818924 -55.940582 0.000000 0.000000 0.000000 -179.475023 -64.462567 174.499244 -44.339279 -22.215506 4.627495 36.282682 -2.477130 -3.619392 -12.011566 -0.448406 -12.839476 0.000000 0.000000 0.000000 67.292752 -66.175988 75.031295 -24.035017 -34.456371 0.455214 34.624073 8.734840 -8.728370 -16.570666 9.357643 2.520513 0.000000 0.000000 0.000000 -5.989027 -63.460497 -0.024267 29.888846 -61.460849 23.147412 1.250955 4.384488 -1.789545 -1.819259 2.805460 -0.838767 0.000000 0.000000 0.000000 1.216788 3.774029 -0.280790 -1.478823 2.709921 0.331954 0.000000 0.000000 0.000000 -1.362437 2.730577 -2.131071 1.611857 0.500380 -4.533086 12.317090 5.261965 -73.031415 5.644976 -17.697925 -15.012973 0.000000 0.000000 0.000000 -1.879727 0.945479 -0.784728 1.092218 1.340504 9.715993 12.900819 15.278368 39.991700 9.968799 60.963393 -1.397559 0.000000 0.000000 0.000000 
-0.043479 92.762199 -56.717834 0.000000 0.000000 0.000000 -178.395143 -62.339881 175.550055 -45.282686 -23.155473 3.431793 36.594016 -3.052626 -3.781664 -11.907737 -0.944072 -13.409569 0.000000 0.000000 0.000000 67.823758 -65.766648 76.113531 -24.495925 -34.536886 0.877015 35.163190 9.422626 -8.848719 -16.413611 10.045686 2.929873 0.000000 0.000000 0.000000 -5.624040 -63.985267 0.298429 32.628258 -62.647909 26.171139 1.692637 4.391089 -1.883771 -1.672491 2.804062 -0.830246 0.000000 0.000000 0.000000 1.439668 3.553077 -0.284943 -1.370367 2.504752 0.301728 0.000000 0.000000 0.000000 -1.273638 2.801055 -2.103667 1.705830 0.522501 -4.724026 13.006893 5.197487 -73.524610 5.899917 -17.283524 -15.192931 0.000000 0.000000 0.000000 -1.725302 0.935789 -0.779263 1.189152 1.398710 9.766149 12.414372 15.796329 39.347244 10.296802 60.727656 -2.109931 0.000000 0.000000 0.000000 
-0.046961 92.685043 -57.551086 0.000000 0.000000 0.000000 -177.724978 -60.442106 176.117848 -45.963635 -23.988169 2.445504 36.985761 -3.618931 -3.939062 -11.734539 -1.433382 -13.974558 0.000000 0.000000 0.000000 68.383909 -65.290373 77.642203 -25.198369 -34.714361 1.638663 35.669980 10.082422 -8.968055 -16.284815 10.698296 3.324437 0.000000 0.000000 0.000000 -5.354611 -64.484909 0.535399 35.178845 -63.688973 28.899128 2.201137 4.369271 -2.001226 -1.490334 2.788642 -0.831996 0.000000 0.000000 0.000000 1.691580 3.357588 -0.321637 -1.241804 2.324980 0.250206 0.000000 0.000000 0.000000 -1.176318 2.871218 -2.081388 1.807182 0.577289 -4.969350 13.693515 5.099710 -74.021847 6.174275 -16.837557 -15.390083 0.000000 0.000000 0.000000 -1.573289 0.918218 -0.768271 1.292735 1.437495 9.816228 11.996933 16.334467 38.784191 10.650317 60.554415 -2.816045 0.000000 0.000000 0.000000 
-0.026782 92.585289 -58.388779 0.000000 0.000000 0.000000 -177.201977 -58.831479 176.559270 -46.613442 -24.693985 1.561914 37.252238 -4.129889 -4.101459 -11.630186 -1.861543 -14.514593 0.000000 0.000000 0.000000 68.907675 -64.815968 79.264728 -26.024870 -34.919366 2.437667 36.151918 10.681468 -9.106889 -16.161093 11.301877 3.644326 0.000000 0.000000 0.000000 -5.104341 -64.995172 0.768973 37.973386 -64.537488 31.842946 2.748056 4.307681 -2.131324 -1.286338 2.755013 -0.840122 0.000000 0.000000 0.000000 1.952425 3.173296 -0.354997 -1.105079 2.160918 0.197643 0.000000 0.000000 0.000000 -1.072578 2.932688 -2.053281 1.910764 0.655880 -5.219568 14.339140 5.016832 -74.484019 6.444387 -16.361706 -15.586020 0.000000 0.000000 0.000000 -1.416704 0.893323 -0.754242 1.402351 1.480699 9.847798 11.674189 16.936672 38.281137 11.062862 60.491734 -3.541905 0.000000 0.000000 0.000000 
-0.053118 92.471230 -59.238914 0.000000 0.000000 0.000000 -176.659674 -57.456268 177.008847 -47.331278 -25.220523 0.663486 37.286505 -4.456689 -4.212824 -11.672415 -2.125091 -14.855419 0.000000 0.000000 0.000000 69.716875 -64.369492 81.229678 -26.885969 -35.199042 3.260169 36.563720 11.195042 -9.255438 -16.067656 11.827603 3.879438 0.000000 0.000000 0.000000 -4.872812 -65.523302 0.992540 40.863365 -65.244849 34.863734 3.271357 4.198137 -2.268792 -1.091495 2.698338 -0.853231 0.000000 0.000000 0.000000 2.135354 2.963786 -0.394635 -1.001525 1.988887 0.138900 0.000000 0.000000 0.000000 -0.986596 2.974181 -2.028667 1.994577 0.703897 -5.503911 14.772226 4.957890 -74.939087 6.621520 -15.996902 -15.803060 0.000000 0.000000 0.000000 -1.274526 0.851742 -0.736196 1.503180 1.483535 9.869254 11.424140 17.520219 37.865015 11.477158 60.441341 -4.226374 0.000000 0.000000 0.000000 
-0.192765 92.302444 -60.223907 0.000000 0.000000 0.000000 -176.136358 -56.206638 177.407183 -48.048653 -25.631070 -0.235509 37.166563 -4.666391 -4.282101 -11.823169 -2.284442 -15.052917 0.000000 0.000000 0.000000 70.891449 -64.004296 83.589945 -27.812730 -35.563036 4.058661 36.880706 11.630195 -9.406918 -16.028347 12.275001 4.042414 0.000000 0.000000 0.000000 -4.703938 -66.072900 1.170331 43.599054 -65.910082 37.761073 3.777271 4.052121 -2.412724 -0.901380 2.623392 -0.871703 0.000000 0.000000 0.000000 2.288880 2.735857 -0.448634 -0.909962 1.812363 0.071639 0.000000 0.000000 0.000000 -0.887299 2.997716 -2.003757 2.087427 0.725448 -5.794981 15.157798 4.888556 -75.302426 6.795023 -15.655601 -15.981220 0.000000 0.000000 0.000000 -1.162974 0.796113 -0.708652 1.581888 1.450231 9.901613 11.239445 18.094049 37.551161 11.883832 60.434306 -4.854858 0.000000 0.000000 0.000000 
-0.397092 92.139084 -61.193382 0.000000 0.000000 0.000000 -175.563292 -55.146124 177.823811 -48.784145 -25.872258 -1.175402 36.857801 -4.734562 -4.329211 -12.073295 -2.315359 -15.126951 0.000000 0.000000 0.000000 71.903669 -63.566685 85.800993 -28.739537 -35.910683 4.846800 37.196688 12.029823 -9.586969 -15.970138 12.709644 4.131858 0.000000 0.000000 0.000000 -4.562405 -66.612847 1.334925 46.409998 -66.474379 40.733588 4.262323 3.880216 -2.560419 -0.720169 2.535933 -0.894280 0.000000 0.000000 0.000000 2.458843 2.482667 -0.524105 -0.809617 1.627623 -0.008053 0.000000 0.000000 0.000000 -0.782278 2.998661 -1.981518 2.172104 0.698602 -6.093491 15.411367 4.793467 -75.597476 6.922136 -15.424640 -16.139363 0.000000 0.000000 0.000000 -1.060590 0.734009 -0.674226 1.648190 1.412360 9.936242 11.175537 18.747720 37.280757 12.364355 60.555064 -5.505257 0.000000 0.000000 0.000000 
